<svg width="98" height="41" viewBox="0 0 98 41" fill="none" xmlns="http://www.w3.org/2000/svg">
<path fill-rule="evenodd" clip-rule="evenodd" d="M67.7894 1.66447V1.00195H63.0275V1.66447C63.6072 1.70588 63.8142 1.7887 64.0212 1.95433C64.3525 2.16137 64.6424 2.57544 64.8908 3.11374L69.0316 12.5547H69.4871L73.5864 3.11374C73.8349 2.53403 74.1247 2.16137 74.456 1.95433C74.7044 1.8301 74.9115 1.70588 75.4498 1.66447V1.00195H70.6879V1.66447C71.2262 1.70588 71.5989 1.7887 71.7231 1.95433C71.8473 2.16137 71.8059 2.57544 71.5989 3.11374C70.9363 4.56301 70.3152 6.05371 69.6941 7.50298L69.4042 8.20689L69.28 8.49675L69.1558 8.20689L68.866 7.50298C68.2034 6.05371 67.5823 4.56301 66.9198 3.11374C66.6713 2.53403 66.6299 2.16137 66.7542 1.95433C66.8784 1.8301 67.2511 1.70588 67.7894 1.66447Z" fill="#06357A"/>
<path fill-rule="evenodd" clip-rule="evenodd" d="M41.661 11.6434C41.4954 11.7676 41.0399 11.8918 40.5016 11.9332V12.5957H45.5533V11.9332C45.015 11.8918 44.5596 11.7676 44.3939 11.6434C44.1455 11.4363 44.0212 11.0636 44.0212 10.4839V7.66821C45.8018 7.66821 47.6237 7.66821 49.4043 7.66821V10.4839C49.4043 11.0636 49.28 11.4363 49.0316 11.6434C48.8659 11.7676 48.4105 11.8918 47.8722 11.9332V12.5957H52.9239V11.9332C52.3856 11.8918 51.9301 11.7676 51.7645 11.6434C51.5161 11.4363 51.3918 11.0636 51.3918 10.4839V3.15477C51.3918 2.57506 51.5161 2.20239 51.7645 1.99536C51.9301 1.87113 52.3856 1.7469 52.9239 1.7055V1.04297H47.8722V1.7055C48.4105 1.7469 48.8659 1.82972 49.0316 1.99536C49.28 2.20239 49.4043 2.61647 49.4043 3.15477V5.9705C47.6237 5.9705 45.8018 5.9705 44.0212 5.9705V3.15477C44.0212 2.57506 44.1455 2.20239 44.3939 1.99536C44.5596 1.87113 45.015 1.7469 45.5533 1.7055V1.04297H40.5016V1.7055C41.0399 1.7469 41.4954 1.82972 41.661 1.99536C41.9094 2.20239 42.0337 2.61647 42.0337 3.15477V10.4839C42.0337 11.0636 41.9094 11.4363 41.661 11.6434Z" fill="#06357A"/>
<path fill-rule="evenodd" clip-rule="evenodd" d="M86.4642 11.6434C86.2986 11.7676 86.0501 11.8918 85.5532 11.9332V12.5957H90.0253V11.9332C89.5284 11.8918 89.1143 11.7676 88.9487 11.6434C88.7002 11.4363 88.6174 11.0636 88.6174 10.4839C88.6174 8.53777 88.6174 6.59161 88.6174 4.64545C90.6878 7.29555 92.9238 9.90424 94.87 12.5957C95.4911 12.5957 96.1122 12.5957 96.7333 12.5957V9.53156C96.7333 7.37836 96.7333 5.26656 96.7333 3.15477C96.7333 2.57506 96.8575 2.20239 97.0646 1.99536C97.2302 1.87113 97.4787 1.7469 97.9756 1.7055V1.04297H93.5035V1.7055C94.0004 1.7469 94.4145 1.82972 94.5801 1.99536C94.7872 2.20239 94.9114 2.61647 94.9114 3.15477C94.9114 5.30797 94.9114 7.54399 94.9114 9.7386C92.634 6.84006 90.3151 3.94151 88.0377 1.04297C87.1681 1.04297 86.4228 1.04297 85.5532 1.04297V1.7055C86.0501 1.7469 86.2986 1.82972 86.4642 1.99536C86.6712 2.20239 86.7955 2.61647 86.7955 3.15477C86.7955 5.59783 86.7955 8.04088 86.7955 10.4839C86.7955 11.0636 86.7126 11.4363 86.4642 11.6434Z" fill="#06357A"/>
<path fill-rule="evenodd" clip-rule="evenodd" d="M60.0046 1.00195L55.8638 10.4429C55.6154 11.0226 55.3255 11.3953 54.9943 11.6023C54.7458 11.7266 54.5802 11.8508 54.0005 11.8922V12.5547H58.7624V11.8922C58.2241 11.8508 57.8514 11.7266 57.7272 11.6023C57.5616 11.3953 57.6444 11.0226 57.8514 10.4429L58.2655 9.53194H62.1992L62.5719 10.4429C62.8203 11.0226 62.8618 11.3953 62.7375 11.6023C62.6133 11.7266 62.2406 11.8508 61.7023 11.8922V12.5547H66.4642V11.8922C65.8845 11.8508 65.6775 11.7266 65.4704 11.6023C65.1392 11.3953 64.8493 11.0226 64.6009 10.4429L60.4601 1.00195H60.0046ZM58.9694 7.91706C59.3835 6.96468 59.7976 6.01228 60.2117 5.10131C60.6257 6.05369 61.0398 6.96468 61.4539 7.91706H58.9694Z" fill="#06357A"/>
<path fill-rule="evenodd" clip-rule="evenodd" d="M79.7562 11.9332V12.5957H84.518V11.9332C83.9383 11.8918 83.7313 11.7676 83.5243 11.6434C83.193 11.4363 82.9031 11.0636 82.6547 10.4839L78.5139 1.04297H78.0584L73.9177 10.4839C73.6692 11.0636 73.3794 11.4363 73.0481 11.6434C72.7996 11.7676 72.634 11.8918 72.0543 11.9332V12.5957H76.8162V11.9332C76.2779 11.8918 75.9052 11.7676 75.781 11.6434C75.6154 11.4363 75.6982 11.0636 75.9052 10.4839L76.3193 9.57298H80.2531L80.6257 10.4839C80.8742 11.0636 80.9156 11.4363 80.7914 11.6434C80.7085 11.7676 80.2945 11.8918 79.7562 11.9332ZM77.0647 7.91667C77.4787 6.96429 77.8928 6.0119 78.3069 5.10092C78.721 6.0533 79.135 6.96429 79.5491 7.91667H77.0647Z" fill="#06357A"/>
<path d="M17.7273 17.6484C15.9053 17.6484 14.4561 19.1391 14.4561 20.9196C14.4561 22.7002 15.9467 24.1909 17.7273 24.1909C19.5492 24.1909 20.9985 22.7002 20.9985 20.9196C20.9985 19.0977 19.5492 17.6484 17.7273 17.6484Z" fill="#00D9EA"/>
<path d="M35.0772 30.1534C35.5741 29.2424 35.6569 28.083 35.3256 26.8408C34.7873 24.9774 33.3794 22.8656 31.2262 20.671L31.102 20.5468L31.2262 20.3812C34.7459 16.3232 35.9467 12.7621 34.5803 10.5675C34.0006 9.65656 33.0482 9.03546 31.7231 8.74561C30.0254 8.37294 27.6652 8.53855 25.0151 9.24248L24.808 9.2839L24.7666 9.07686C23.1517 3.9423 20.6258 0.960938 17.8101 0.960938C15.0358 0.960938 12.5099 3.90089 10.895 8.99404L10.8536 9.20108L10.6466 9.15968C5.47061 7.95886 1.74391 8.57996 0.501676 10.7746C-0.0366248 11.6855 -0.119456 12.8036 0.253214 14.0872C0.832923 16.1576 2.53065 18.5592 5.18075 21.0437L5.34636 21.1679L5.18075 21.3336C1.12279 25.6814 -0.450707 29.6979 1.03997 32.0168C1.61968 32.9277 2.57204 33.5488 3.89709 33.8387C4.55962 33.9629 5.22216 34.0457 5.88469 34.0457C7.33396 34.0457 8.99027 33.7973 10.8536 33.259L11.0607 33.2176L11.1435 33.4246C12.7584 38.1037 15.2014 40.7538 17.8515 40.7538C20.7501 40.7538 23.4416 37.4826 25.0151 31.934L25.0565 31.7269L25.2635 31.7683C25.6776 31.8511 26.1331 31.9339 26.63 32.0168C26.5886 31.8511 26.5886 31.6441 26.5886 31.4785C26.5886 31.2714 26.63 31.023 26.6714 30.7745C26.2987 30.6917 25.926 30.6503 25.5948 30.5675L25.3877 30.5261L25.4291 30.319C25.8018 28.5799 26.0917 26.8822 26.2159 25.1845V25.1017L26.2987 25.0602C27.6652 23.9836 28.9488 22.8242 30.1496 21.582L30.3153 21.4164L30.4809 21.582C32.4685 23.611 33.7521 25.5157 34.2076 27.1306C34.456 28.083 34.4146 28.8698 34.0834 29.4909C33.9177 29.7807 33.6279 30.0706 33.2552 30.319C33.3794 30.6917 33.4623 31.1058 33.4623 31.5199C33.4623 31.5613 33.4623 31.6027 33.4623 31.6441C34.1248 31.3128 34.7045 30.7745 35.0772 30.1534ZM23.8971 10.8574L23.9385 11.0644C24.2697 12.3895 24.5182 13.7145 24.6838 14.9982L24.7252 15.4536L24.3525 15.2052C23.483 14.6255 22.572 14.0872 21.661 13.5903C21.1227 13.3004 20.6258 13.0106 20.0461 12.7207L19.6735 12.5137L20.0875 12.3481C21.247 11.8098 22.4892 11.3129 23.69 10.8988L23.8971 10.8574ZM12.0544 9.3253C13.4209 4.97748 15.6155 2.28598 17.7687 2.28598C19.9633 2.28598 22.1165 4.97749 23.5244 9.49094L23.6072 9.69798L23.4002 9.7808C21.7024 10.3605 20.0047 11.023 18.3484 11.8512L18.2656 11.8926L18.1828 11.8512C16.278 10.9816 14.2905 10.2363 12.2201 9.61516L12.013 9.57376L12.0544 9.3253ZM10.688 16.0334C10.8536 14.2942 11.1849 12.5965 11.599 10.9402L11.6404 10.7332L11.8474 10.7746C13.4209 11.2301 14.953 11.7684 16.4022 12.3895L16.8163 12.5551L16.4437 12.7621C15.3671 13.3833 14.3733 13.9216 13.5037 14.5013C12.717 14.9982 11.8888 15.5779 11.0607 16.1576L10.688 16.4474V16.0334ZM1.37123 13.7973C1.12278 12.845 1.16419 12.0582 1.49545 11.4371C2.44783 9.7808 5.76045 9.40813 10.1911 10.4019L10.3981 10.4433L10.3567 10.6504C9.81842 12.8864 9.44573 15.1638 9.2801 17.4412V17.524L9.19731 17.5655C8.12071 18.435 7.1269 19.3046 6.25734 20.1741L6.09173 20.2984L5.92608 20.1741C3.48303 17.8553 1.90953 15.6607 1.37123 13.7973ZM9.19731 22.4102V22.8656L8.82463 22.6172C8.24492 22.1617 7.6652 21.7062 7.20971 21.2922L7.0441 21.1265L7.20971 20.9609C7.70661 20.464 8.24492 19.9671 8.82463 19.5116L9.19731 19.2218V19.6772C9.19731 20.0913 9.19731 20.464 9.19731 20.8781C9.1559 21.4164 9.1559 21.9133 9.19731 22.4102ZM10.3981 32.0996C8.7004 32.5551 7.1269 32.8035 5.84326 32.8035C5.22215 32.8035 4.60103 32.7621 4.10413 32.6379C3.11035 32.4308 2.40641 31.9754 2.03374 31.3542C0.915734 29.5737 2.48923 25.9712 6.0503 22.1617L6.17452 21.9961L6.34016 22.1203C7.20972 22.8656 8.20351 23.6524 9.23871 24.3563L9.32153 24.3977V24.4806C9.52857 27.0892 9.94264 29.5323 10.5638 31.7269L10.6052 31.934L10.3981 32.0996ZM11.7646 31.6855L11.7232 31.4785C11.2263 29.6151 10.8536 27.7104 10.688 25.847L10.6466 25.3915L11.0192 25.64C11.9716 26.2611 12.8826 26.7994 13.835 27.3377C14.8702 27.9174 15.9054 28.4557 17.189 29.0354L17.5617 29.201L17.189 29.4081C15.5327 30.2776 13.7936 30.9816 12.013 31.6027L11.7646 31.6855ZM23.69 31.6855C22.3236 36.5302 20.0047 39.5116 17.7273 39.5116C15.6983 39.5116 13.6279 37.1099 12.2201 33.0934L12.1372 32.8863L12.3443 32.8035C14.4147 32.0996 16.6093 31.1472 18.9281 29.905L19.0109 29.8636L19.0937 29.905C20.5016 30.4847 21.9923 31.023 23.5244 31.4371L23.7314 31.4785L23.69 31.6855ZM24.6838 26.6752C24.5182 27.8346 24.3526 28.994 24.1041 30.0706L24.0627 30.2776L23.8556 30.2362C22.9033 29.9878 21.8681 29.6565 20.8329 29.2425L20.4188 29.0768L20.7915 28.8284C21.1642 28.5799 21.5782 28.3315 22.0337 28.0416C22.8619 27.5033 23.6486 26.965 24.3939 26.4267L24.7666 26.1369L24.6838 26.6752ZM24.9323 24.3977V24.4806L24.8494 24.522C23.7314 25.3915 22.572 26.2197 21.3298 27.0064C20.6258 27.4619 19.8805 27.9174 19.0109 28.4143L18.9281 28.4557L18.8453 28.4143C17.396 27.7932 15.9054 27.0478 14.4147 26.2197C13.1724 25.5157 11.8888 24.729 10.6052 23.8594L10.5223 23.818V23.7352C10.4809 22.907 10.4395 21.9547 10.4395 20.9195C10.4395 20.0913 10.4809 19.2218 10.5223 18.2694V18.1866L10.6052 18.1451C11.7646 17.2342 12.9654 16.406 14.1662 15.6193C15.4913 14.7911 16.8577 14.0044 18.1828 13.3005L18.2656 13.259L18.3484 13.3005C19.3008 13.7559 20.2118 14.2114 21.0813 14.7083C22.4064 15.4536 23.69 16.2404 24.8494 17.0272L24.9323 17.0686V17.1514C25.0151 18.4764 25.0979 19.6772 25.0979 20.8367C25.0565 22.0375 25.0151 23.1969 24.9323 24.3977ZM29.1558 20.7124C28.4105 21.4992 27.5409 22.2859 26.63 23.1141L26.2573 23.4454V22.9485C26.2987 22.2031 26.2987 21.5406 26.2987 20.8781C26.2987 20.0913 26.2573 19.346 26.2159 18.4764L26.1745 18.0209L26.5471 18.3108C27.4995 19.0147 28.3277 19.7186 29.1144 20.4226L29.2801 20.5882L29.1558 20.7124ZM30.3153 19.5116L30.191 19.6772L30.0254 19.5116C28.8246 18.435 27.5409 17.3998 26.2159 16.4474L26.1331 16.406V16.3232C25.9674 14.4185 25.6362 12.5551 25.1807 10.7332L25.1393 10.5261L25.3463 10.4847C26.9612 10.0292 28.4519 9.8222 29.6942 9.8222C30.3153 9.8222 30.8536 9.86362 31.4333 9.98784C32.427 10.1949 33.131 10.6504 33.5451 11.2715C34.4975 12.8864 33.2966 16.0334 30.3153 19.5116Z" fill="#06357A"/>
<path d="M29.9012 29.4492C28.7418 29.4492 27.7894 30.4016 27.7894 31.561C27.7894 32.7204 28.7418 33.6728 29.9012 33.6728C31.0607 33.6728 32.013 32.7204 32.013 31.561C32.013 30.4016 31.0607 29.4492 29.9012 29.4492ZM29.9012 32.7618C29.2387 32.7618 28.7004 32.2235 28.7004 31.561C28.7004 30.8985 29.2387 30.3602 29.9012 30.3602C30.5638 30.3602 31.1021 30.8985 31.1021 31.561C31.1021 32.2235 30.5638 32.7618 29.9012 32.7618Z" fill="#06357A"/>
<path d="M76.3193 22.7416C75.2012 22.7416 74.1247 22.9487 73.1723 23.3628C72.5098 23.6526 71.93 24.0253 71.4331 24.4808L71.1433 24.7706V16.4062H65.1392V19.2634H67.9549V39.4704L68.0791 39.5532C68.6174 39.9258 69.487 40.2571 70.6464 40.547C71.8058 40.8368 73.0894 40.9611 74.4973 40.9611C77.5201 40.9611 79.8803 40.1329 81.5366 38.5594C83.1929 36.9445 84.0211 34.6257 84.0211 31.6443C84.0625 25.7644 81.4538 22.7416 76.3193 22.7416ZM80.253 34.5842C79.9631 35.4124 79.5905 36.0749 79.0936 36.6132C78.5967 37.1515 78.017 37.5242 77.3131 37.7726C76.6091 38.0211 75.7395 38.1453 74.87 38.1453C74.1661 38.1453 73.4621 38.0625 72.7582 37.9383C72.1785 37.8141 71.6816 37.6484 71.2261 37.4414L71.1019 37.4V29.781C71.4746 28.4559 72.0542 27.4207 72.841 26.7168C73.6277 25.9714 74.6629 25.6402 75.9466 25.6402C76.8161 25.6402 77.5201 25.8058 78.1412 26.0957C78.7209 26.3855 79.2178 26.841 79.5905 27.3793C79.9632 27.9176 80.253 28.5801 80.4186 29.2841C80.5843 30.0294 80.6671 30.8161 80.6671 31.6443C80.6671 32.7623 80.5429 33.7561 80.253 34.5842Z" fill="#06357A"/>
<path d="M97.3544 33.5485C97.106 33.0102 96.7333 32.5547 96.3193 32.182C95.9052 31.7679 95.4083 31.4367 94.87 31.1468C94.3317 30.857 93.752 30.5671 93.1723 30.3601C92.5926 30.1116 92.0542 29.9046 91.4745 29.6561C90.9362 29.4491 90.4393 29.2006 90.0253 28.9936C89.6112 28.7452 89.2385 28.4967 88.9901 28.2069C88.7416 27.917 88.6174 27.5857 88.6174 27.2131C88.6174 26.799 88.7002 26.4677 88.8659 26.1779C89.0315 25.888 89.2799 25.681 89.5698 25.5154C89.8596 25.3497 90.1909 25.2255 90.5222 25.1427C90.8534 25.0599 91.2261 25.0185 91.5574 25.0185C91.8058 25.0185 92.0128 25.0185 92.1785 25.0185C92.3441 25.0185 92.5097 25.0599 92.6754 25.0599C92.841 25.1013 93.0066 25.1013 93.1723 25.1841C93.3379 25.2255 93.5449 25.2669 93.752 25.3497L94.2075 27.8756H96.7333V23.4864C96.2778 23.2793 95.8224 23.0723 95.4083 22.9067C94.9942 22.741 94.5387 22.6168 94.1246 22.534C93.7106 22.4512 93.2551 22.3684 92.7996 22.327C92.3441 22.2856 91.8472 22.2441 91.3503 22.2441C90.5636 22.2441 89.7768 22.327 89.0315 22.534C88.2862 22.741 87.5408 22.9895 86.9197 23.4036C86.2986 23.8176 85.8017 24.3145 85.3876 24.977C85.0149 25.5982 84.8079 26.3849 84.8079 27.2959C84.8079 28.0412 84.9321 28.6623 85.1806 29.1592C85.429 29.6561 85.8017 30.1116 86.2158 30.4843C86.6299 30.857 87.1267 31.1882 87.665 31.4367C88.2033 31.6851 88.7416 31.9336 89.3214 32.1406C89.9011 32.3476 90.4394 32.5547 90.9777 32.7617C91.516 32.9688 92.0129 33.1758 92.4269 33.4656C92.841 33.7141 93.1723 34.004 93.4621 34.3352C93.7106 34.6665 93.8348 35.0806 93.8348 35.5774C93.8348 36.0329 93.752 36.4056 93.5449 36.6955C93.3379 36.9853 93.1309 37.1923 92.841 37.358C92.5512 37.5236 92.2199 37.6478 91.8472 37.6892C91.4745 37.7306 91.1019 37.7721 90.7292 37.7721C89.694 37.7721 88.6588 37.6064 87.665 37.3166C87.0853 37.1509 86.0915 36.8197 85.222 36.4884C84.8493 37.4822 84.3524 38.3932 83.7727 39.1799C85.0149 39.801 86.547 40.3393 87.2924 40.505C88.2862 40.712 89.3628 40.7948 90.4808 40.7948C91.2675 40.7948 92.1371 40.6706 92.9652 40.4636C93.8348 40.2565 94.6216 39.9253 95.3255 39.5112C96.0294 39.0557 96.6091 38.5174 97.0646 37.8135C97.5201 37.1509 97.7685 36.3228 97.7685 35.3704C97.7685 34.6665 97.6443 34.0868 97.3544 33.5485Z" fill="#06357A"/>
<path d="M62.6547 38.3928V40.7116C65.0149 40.2561 65.8845 39.5108 65.8845 39.5108V28.1651C65.8845 27.0471 65.7188 26.1361 65.3462 25.3907C64.9735 24.6454 64.4766 24.0243 63.8555 23.5688C63.2344 23.1133 62.489 22.7821 61.6195 22.575C60.7499 22.368 59.8389 22.2852 58.8451 22.2852C57.7271 22.2852 56.6505 22.368 55.5739 22.575C54.4973 22.7821 53.4621 23.0305 52.4269 23.3618V27.7096H54.9528L55.3669 25.4322C56.3193 25.2251 57.3131 25.1423 58.3068 25.1423C58.7623 25.1423 59.1764 25.1837 59.6319 25.2251C60.0874 25.3079 60.5015 25.4321 60.8327 25.5978C61.2054 25.8048 61.4952 26.0533 61.7437 26.3845C61.9921 26.7158 62.0749 27.1713 62.0749 27.7096V29.5315C61.371 29.5315 60.6257 29.5315 59.7975 29.5315C58.9694 29.5315 58.1826 29.5729 57.3545 29.6972C56.5263 29.78 55.781 29.9456 54.9942 30.1941C54.2489 30.4011 53.5864 30.7324 53.0067 31.1464C52.427 31.5605 51.9715 32.0988 51.6402 32.7613C51.3089 33.4239 51.1433 34.252 51.1433 35.2044C51.1433 36.1982 51.3089 37.0263 51.5988 37.7303C51.93 38.4342 52.3441 39.0139 52.8824 39.4694C53.4207 39.9249 54.0833 40.2561 54.87 40.4632C55.6568 40.6702 56.4849 40.7944 57.4373 40.7944C58.4725 40.7944 59.4249 40.5874 60.2944 40.2147C61.2468 39.8007 61.9921 39.1795 62.6547 38.3928ZM62.1164 34.7903C62.1164 35.3286 61.9921 35.7841 61.7437 36.1982C61.4952 36.6123 61.2054 36.9435 60.8327 37.192C60.46 37.4404 60.046 37.6474 59.5491 37.7717C59.0936 37.8959 58.5967 37.9787 58.1412 37.9787C56.1122 37.9787 55.077 36.9849 55.077 34.9559C55.077 34.2106 55.2427 33.6309 55.5325 33.2168C55.8638 32.8027 56.2365 32.5129 56.7334 32.3058C57.2303 32.0988 57.7686 31.9746 58.3897 31.9332C59.0108 31.8918 59.5905 31.8504 60.1702 31.8504H62.0749V34.7903H62.1164Z" fill="#06357A"/>
<path d="M49.7355 38.2277C49.6113 37.9379 49.4871 37.6066 49.4042 37.234C48.9074 37.3996 48.3276 37.5652 47.7479 37.648C47.4581 37.6895 47.1682 37.6895 46.9198 37.648C46.6713 37.6066 46.4229 37.4824 46.2158 37.3168C46.0088 37.1512 45.926 36.9027 45.926 36.6129V16.4473H40.2117C40.0047 17.5239 39.7148 18.352 39.3422 19.056H42.2407V36.6543C42.2407 37.2754 42.3649 37.8137 42.572 38.3106C42.779 38.8075 43.0688 39.2215 43.4415 39.5528C43.8142 39.8841 44.2697 40.1325 44.7666 40.3396C45.2635 40.5466 45.8432 40.588 46.4229 40.6294C48.2862 40.7122 49.8183 40.2153 50.7293 39.8013C50.3566 39.3044 50.0254 38.8075 49.7355 38.2277Z" fill="#06357A"/>
</svg>
